<svg width="50" height="50" viewBox="0 0 50 50" fill="none" xmlns="http://www.w3.org/2000/svg">
<circle cx="25" cy="25" r="25" fill="#65C56F"/>
<path d="M36.7104 35.6086C37.6129 35.3668 38.2498 34.6152 38.3944 33.7462C38.1479 33.9491 37.8558 34.1036 37.5287 34.1913L19.6435 38.9836C18.4138 39.3131 17.1382 38.5766 16.8087 37.347L12.0164 19.4617C11.9288 19.1346 11.9166 18.8043 11.969 18.4894C11.2887 19.0492 10.9562 19.9765 11.1981 20.8791L15.9904 38.7643C16.3199 39.9939 17.5955 40.7304 18.8251 40.4009L36.7104 35.6086Z" fill="#397143"/>
<path d="M14.7709 16.3275L13.653 16.627C13.4883 16.0122 13.8565 15.3744 14.4713 15.2097L14.7709 16.3275Z" fill="#397143"/>
<path d="M28.1848 12.7332L27.067 13.0327C26.9022 12.4179 27.2704 11.7802 27.8853 11.6154L28.1848 12.7332Z" fill="#397143"/>
<path d="M31.5383 11.8347L30.4205 12.1342L30.1209 11.0164C29.9562 10.4016 29.3184 10.0333 28.7036 10.1981C28.0888 10.3628 27.7205 11.0006 27.8853 11.6154L28.1848 12.7333L17.0065 15.7285L16.707 14.6106C16.5423 13.9958 15.9045 13.6276 15.2896 13.7923C14.6748 13.9571 14.3066 14.5949 14.4713 15.2097L14.7709 16.3275L13.653 16.627C12.4234 16.9565 11.6869 18.2321 12.0164 19.4617L16.8088 37.347C17.1382 38.5766 18.4138 39.3131 19.6435 38.9836L37.5287 34.1913C38.7583 33.8618 39.4948 32.5862 39.1653 31.3566L34.373 13.4713C34.0435 12.2417 32.7679 11.5052 31.5383 11.8347ZM35.8119 32.2551L20.1622 36.4484C19.5474 36.6132 18.9096 36.2449 18.7449 35.6301L15.1506 22.2162L33.0359 17.4238L36.6302 30.8378C36.7949 31.4526 36.4267 32.0904 35.8119 32.2551Z" fill="#27283B"/>
<path fill-rule="evenodd" clip-rule="evenodd" d="M20.1622 36.4484L35.8119 32.2551C36.4261 32.0905 36.7943 31.4536 36.6306 30.8393C36.6304 30.8388 36.6303 30.8383 36.6302 30.8378L33.0359 17.4238L15.1506 22.2162L18.7449 35.6301C18.9096 36.2449 19.5474 36.6132 20.1622 36.4484Z" fill="#F5DDDD"/>
</svg>
