<svg width="660" height="685" viewBox="0 0 660 685" fill="none" xmlns="http://www.w3.org/2000/svg">
<g filter="url(#filter0_dd)">
<path fill-rule="evenodd" clip-rule="evenodd" d="M87.5177 82.2746C44.0061 89.9469 14.9526 131.44 22.6249 174.951L28.008 205.48L90.3477 559.026L95.7308 589.555C103.403 633.067 144.896 662.12 188.407 654.448L572.482 586.725C615.994 579.053 645.047 537.56 637.375 494.049L631.992 463.52L569.652 109.974L564.269 79.4446C556.597 35.9331 515.104 6.8796 471.593 14.5519L87.5177 82.2746Z" fill="black"/>
</g>
<rect x="14.1161" y="126.695" width="550" height="550" rx="80" transform="rotate(-10 14.1161 126.695)" fill="url(#paint0_linear)"/>
<g filter="url(#filter1_i)">
<rect x="8.73303" y="96.1665" width="550" height="550" rx="80" transform="rotate(-10 8.73303 96.1665)" fill="url(#paint1_linear)"/>
</g>
<rect x="9.89149" y="96.9777" width="548" height="548" rx="79" transform="rotate(-10 9.89149 96.9777)" stroke="white" stroke-opacity="0.1" stroke-width="2"/>
<g filter="url(#filter2_d)">
<path fill-rule="evenodd" clip-rule="evenodd" d="M75.9187 177.739C72.0826 155.983 86.6093 135.237 108.365 131.401L472.744 67.1509C494.5 63.3148 515.246 77.8415 519.082 99.5973L524.465 130.126L590.278 503.368L147.114 581.51L81.3018 208.268L75.9187 177.739Z" fill="black"/>
</g>
<rect x="81.3018" y="208.268" width="450" height="379" transform="rotate(-10 81.3018 208.268)" fill="#BABABA"/>
<path d="M140.946 572.444C141.763 533.308 101.262 317.63 81.3018 208.268L524.465 130.127C539.399 214.82 565.526 414.822 594.566 496.013C448.466 528.374 235.545 561.856 140.946 572.444Z" fill="#E0E0E0"/>
<path d="M136.487 561.553C135.046 513.066 99.5348 311.673 81.3017 208.268L524.465 130.127C576.143 423.205 584.722 463.224 596.855 485.962C351.375 544.986 224.887 556.12 136.487 561.553Z" fill="url(#paint2_linear)"/>
<g filter="url(#filter3_i)">
<path fill-rule="evenodd" clip-rule="evenodd" d="M108.365 131.401C86.6093 135.237 72.0826 155.983 75.9187 177.739L81.3018 208.268L524.465 130.126L519.082 99.5973C515.246 77.8415 494.5 63.3148 472.744 67.1509L108.365 131.401Z" fill="url(#paint3_linear)"/>
</g>
<path d="M415.183 303.367C401.719 261.639 364.442 242.623 321.764 250.148C271.471 259.016 240.052 302.358 251.025 364.589C261.981 426.726 305.876 456.884 356.639 447.934C402.419 439.861 427.561 404.896 426.438 367.196L391.247 373.207C390.807 396.547 374.62 412.486 351.589 416.547C320.38 422.05 293.879 402.588 286.089 358.406C278.431 314.976 296.356 286.905 327.847 281.352C351.255 277.225 371.923 287.248 380.026 309.566L415.183 303.367Z" fill="url(#paint4_linear)"/>
<path d="M200.189 311.186C214.238 308.809 221.94 297.356 219.609 284.319C217.443 271.85 207.091 264.378 195.694 266.388C188.709 267.619 183.158 272.151 181.046 278.368L180.602 278.446C178.152 264.367 181.68 255.045 190.697 253.455C196.284 252.47 200.647 255.121 202.773 260.125L214.361 258.082C211.056 247.508 201.16 240.951 188.874 243.118C173.254 245.872 165.709 260.817 169.718 283.553C173.983 307.738 187.701 313.322 200.189 311.186ZM198.422 301.536C191.469 302.762 185.362 297.829 184.115 290.943C182.957 284.008 187.205 277.282 194.094 276.067C200.983 274.852 207.008 279.501 208.225 286.592C209.529 293.8 205.311 300.321 198.422 301.536Z" fill="#303030"/>
<defs>
<filter id="filter0_dd" x="0.733032" y="0.660156" width="658.534" height="683.68" filterUnits="userSpaceOnUse" color-interpolation-filters="sRGB">
<feFlood flood-opacity="0" result="BackgroundImageFix"/>
<feColorMatrix in="SourceAlpha" type="matrix" values="0 0 0 0 0 0 0 0 0 0 0 0 0 0 0 0 0 0 127 0"/>
<feOffset dy="8"/>
<feGaussianBlur stdDeviation="4"/>
<feColorMatrix type="matrix" values="0 0 0 0 0 0 0 0 0 0 0 0 0 0 0 0 0 0 0.2 0"/>
<feBlend mode="normal" in2="BackgroundImageFix" result="effect1_dropShadow"/>
<feColorMatrix in="SourceAlpha" type="matrix" values="0 0 0 0 0 0 0 0 0 0 0 0 0 0 0 0 0 0 127 0"/>
<feOffset dy="4"/>
<feGaussianBlur stdDeviation="2"/>
<feColorMatrix type="matrix" values="0 0 0 0 0 0 0 0 0 0 0 0 0 0 0 0 0 0 0.25 0"/>
<feBlend mode="normal" in2="effect1_dropShadow" result="effect2_dropShadow"/>
<feBlend mode="normal" in="SourceGraphic" in2="effect2_dropShadow" result="shape"/>
</filter>
<filter id="filter1_i" x="8.73303" y="0.660156" width="637.151" height="637.151" filterUnits="userSpaceOnUse" color-interpolation-filters="sRGB">
<feFlood flood-opacity="0" result="BackgroundImageFix"/>
<feBlend mode="normal" in="SourceGraphic" in2="BackgroundImageFix" result="shape"/>
<feColorMatrix in="SourceAlpha" type="matrix" values="0 0 0 0 0 0 0 0 0 0 0 0 0 0 0 0 0 0 127 0" result="hardAlpha"/>
<feOffset dy="2"/>
<feComposite in2="hardAlpha" operator="arithmetic" k2="-1" k3="1"/>
<feColorMatrix type="matrix" values="0 0 0 0 1 0 0 0 0 1 0 0 0 0 1 0 0 0 0.16 0"/>
<feBlend mode="normal" in2="shape" result="effect1_innerShadow"/>
</filter>
<filter id="filter2_d" x="54.9728" y="55.2051" width="549.305" height="549.305" filterUnits="userSpaceOnUse" color-interpolation-filters="sRGB">
<feFlood flood-opacity="0" result="BackgroundImageFix"/>
<feColorMatrix in="SourceAlpha" type="matrix" values="0 0 0 0 0 0 0 0 0 0 0 0 0 0 0 0 0 0 127 0"/>
<feOffset dy="9"/>
<feGaussianBlur stdDeviation="7"/>
<feColorMatrix type="matrix" values="0 0 0 0 0 0 0 0 0 0 0 0 0 0 0 0 0 0 0.3 0"/>
<feBlend mode="normal" in2="BackgroundImageFix" result="effect1_dropShadow"/>
<feBlend mode="normal" in="SourceGraphic" in2="effect1_dropShadow" result="shape"/>
</filter>
<filter id="filter3_i" x="68.9728" y="60.2051" width="455.492" height="148.063" filterUnits="userSpaceOnUse" color-interpolation-filters="sRGB">
<feFlood flood-opacity="0" result="BackgroundImageFix"/>
<feBlend mode="normal" in="SourceGraphic" in2="BackgroundImageFix" result="shape"/>
<feColorMatrix in="SourceAlpha" type="matrix" values="0 0 0 0 0 0 0 0 0 0 0 0 0 0 0 0 0 0 127 0" result="hardAlpha"/>
<feOffset dy="2"/>
<feComposite in2="hardAlpha" operator="arithmetic" k2="-1" k3="1"/>
<feColorMatrix type="matrix" values="0 0 0 0 1 0 0 0 0 1 0 0 0 0 1 0 0 0 0.25 0"/>
<feBlend mode="normal" in2="shape" result="effect1_innerShadow"/>
</filter>
<linearGradient id="paint0_linear" x1="14.1161" y1="676.695" x2="564.116" y2="676.695" gradientUnits="userSpaceOnUse">
<stop stop-color="#2B2B2B"/>
<stop offset="0.119792" stop-color="#393939"/>
<stop offset="0.489583" stop-color="#404040"/>
<stop offset="0.911458" stop-color="#3A3A3A"/>
<stop offset="1" stop-color="#2B2B2B"/>
</linearGradient>
<linearGradient id="paint1_linear" x1="283.733" y1="96.1665" x2="283.733" y2="646.166" gradientUnits="userSpaceOnUse">
<stop stop-color="#4D4D4D"/>
<stop offset="1" stop-color="#3C3C3C"/>
</linearGradient>
<linearGradient id="paint2_linear" x1="304.114" y1="168.98" x2="352.535" y2="537.166" gradientUnits="userSpaceOnUse">
<stop stop-color="white"/>
<stop offset="0.697917" stop-color="#F9F9F9"/>
<stop offset="0.885417" stop-color="#EFEFEF"/>
<stop offset="1" stop-color="#FEFEFE"/>
</linearGradient>
<linearGradient id="paint3_linear" x1="290.555" y1="99.2758" x2="302.884" y2="169.197" gradientUnits="userSpaceOnUse">
<stop stop-color="#D95644"/>
<stop offset="1" stop-color="#CB4432"/>
</linearGradient>
<linearGradient id="paint4_linear" x1="318.427" y1="250.737" x2="353.301" y2="448.522" gradientUnits="userSpaceOnUse">
<stop stop-color="#303030"/>
<stop offset="1" stop-color="#2D2D2D"/>
</linearGradient>
</defs>
</svg>
