<svg fill="none" xmlns="http://www.w3.org/2000/svg" viewBox="0 0 308 308">
  <g filter="url(#filter0_d)">
    <circle cx="154" cy="150" r="150" fill="#303030"/>
    <circle cx="154" cy="150" r="150" fill="url(#paint0_linear)" fill-opacity=".2"/>
  </g>
  <g filter="url(#filter1_i)">
    <circle cx="154" cy="150" r="135" fill="#4F4F4F"/>
    <circle cx="154" cy="150" r="135" fill="url(#paint1_linear)" fill-opacity=".1"/>
  </g>
  <g filter="url(#filter2_d)">
    <path d="M81.5463 79.0177c0-.5621.4556-1.0177 1.0177-1.0177h141.011c.562 0 1.017.4556 1.017 1.0177V221.046H81.5463V79.0177z" fill="#D8D8D8"/>
  </g>
  <g filter="url(#filter3_f)">
    <path d="M79.9569 217.073c1.2715-3.179 14.4691-62.04 14.4691-96.477h120.618c0 25.748 2.276 72.51 12.636 97.807-45.139 4.451-117.392.921-147.7231-1.33z" fill="#000" fill-opacity=".25"/>
  </g>
  <path d="M79.9569 217.073c1.2715-3.179 1.5894-72.848 1.5894-107.285H224.592c0 25.748 1.855 83.046 2.782 108.477-45.139 4.45-117.086 1.059-147.4171-1.192z" fill="#E3E3E3"/>
  <g filter="url(#filter4_i)">
    <path d="M81.5463 79.0177c0-.5621.4556-1.0177 1.0177-1.0177h141.011c.562 0 1.017.4556 1.017 1.0177v30.7703H81.5463V79.0177z" fill="#E34C38"/>
    <path d="M81.5463 79.0177c0-.5621.4556-1.0177 1.0177-1.0177h141.011c.562 0 1.017.4556 1.017 1.0177v30.7703H81.5463V79.0177z" fill="url(#paint2_linear)" fill-opacity=".1"/>
  </g>
  <g filter="url(#filter5_f)">
    <path d="M79.1622 214.688c2.2252-6.039 13.2629-61.806 13.1304-94.256H214.388c0 24.159 3.446 71.386 14.575 96.243-52.45 7.311-121.721 1.722-149.8008-1.987z" fill="#000" fill-opacity=".25"/>
  </g>
  <path d="M79 214.689c2.2252-6.04 2.5166-72.451 2.3841-104.901H224.43c0 24.159 2.914 81.324 4.371 106.887-52.45 7.312-121.722 1.722-149.801-1.986z" fill="#F4F4F4"/>
  <path d="M79 214.689c2.2252-6.04 2.5166-72.451 2.3841-104.901H224.43c0 24.159 2.914 81.324 4.371 106.887-52.45 7.312-121.722 1.722-149.801-1.986z" fill="url(#paint3_linear)"/>
  <g filter="url(#filter6_d)">
    <path d="M176.038 150.664c.404 0 .712-.364.636-.76-2.075-10.84-10.778-17.152-21.701-17.152-13.678 0-23.77 10.246-23.77 27.151s10.04 27.151 23.77 27.151c11.331 0 19.689-6.927 21.696-16.971.079-.396-.228-.761-.633-.762l-6.742-.022c-.313-.001-.582.221-.656.525-1.55 6.428-7.104 9.952-13.613 9.952-9.059 0-15.898-6.943-15.898-19.873 0-12.827 6.813-19.873 15.924-19.873 6.559 0 12.091 3.598 13.592 10.102.071.307.34.532.654.532h6.741z" fill="#232323"/>
    <path d="M176.038 150.664c.404 0 .712-.364.636-.76-2.075-10.84-10.778-17.152-21.701-17.152-13.678 0-23.77 10.246-23.77 27.151s10.04 27.151 23.77 27.151c11.331 0 19.689-6.927 21.696-16.971.079-.396-.228-.761-.633-.762l-6.742-.022c-.313-.001-.582.221-.656.525-1.55 6.428-7.104 9.952-13.613 9.952-9.059 0-15.898-6.943-15.898-19.873 0-12.827 6.813-19.873 15.924-19.873 6.559 0 12.091 3.598 13.592 10.102.071.307.34.532.654.532h6.741z" fill="url(#paint4_linear)" fill-opacity=".2"/>
    <path d="M117.945 141.659c3.508.033 5.837-2.492 5.828-5.714.009-3.213-2.328-5.517-5.238-5.517-1.755 0-3.276.838-4.141 2.233-.015.024-.04.038-.067.038-.044 0-.079-.036-.079-.079.028-3.805 1.468-6.028 3.91-6.028 1.422 0 2.38.756 2.823 1.916.109.283.367.494.67.494h1.226c.4 0 .709-.355.603-.741-.633-2.303-2.604-3.891-5.322-3.891-3.902 0-6.337 3.353-6.337 9.231 0 6.181 3.14 8.033 6.124 8.058zm-.008-2.131c-1.951 0-3.378-1.64-3.378-3.525.008-1.877 1.5-3.517 3.435-3.517 1.918 0 3.328 1.549 3.32 3.492.008 1.984-1.459 3.55-3.377 3.55z" fill="#232323"/>
    <path d="M117.945 141.659c3.508.033 5.837-2.492 5.828-5.714.009-3.213-2.328-5.517-5.238-5.517-1.755 0-3.276.838-4.141 2.233-.015.024-.04.038-.067.038-.044 0-.079-.036-.079-.079.028-3.805 1.468-6.028 3.91-6.028 1.422 0 2.38.756 2.823 1.916.109.283.367.494.67.494h1.226c.4 0 .709-.355.603-.741-.633-2.303-2.604-3.891-5.322-3.891-3.902 0-6.337 3.353-6.337 9.231 0 6.181 3.14 8.033 6.124 8.058zm-.008-2.131c-1.951 0-3.378-1.64-3.378-3.525.008-1.877 1.5-3.517 3.435-3.517 1.918 0 3.328 1.549 3.32 3.492.008 1.984-1.459 3.55-3.377 3.55z" fill="url(#paint5_linear)" fill-opacity=".2"/>
  </g>
  <defs>
    <filter id="filter0_d" x="0" y="0" width="308" height="308" filterUnits="userSpaceOnUse" color-interpolation-filters="sRGB">
      <feFlood flood-opacity="0" result="BackgroundImageFix"/>
      <feColorMatrix in="SourceAlpha" values="0 0 0 0 0 0 0 0 0 0 0 0 0 0 0 0 0 0 127 0"/>
      <feOffset dy="4"/>
      <feGaussianBlur stdDeviation="2"/>
      <feColorMatrix values="0 0 0 0 0 0 0 0 0 0 0 0 0 0 0 0 0 0 0.25 0"/>
      <feBlend in2="BackgroundImageFix" result="effect1_dropShadow"/>
      <feBlend in="SourceGraphic" in2="effect1_dropShadow" result="shape"/>
    </filter>
    <filter id="filter1_i" x="19" y="15" width="270" height="271" filterUnits="userSpaceOnUse" color-interpolation-filters="sRGB">
      <feFlood flood-opacity="0" result="BackgroundImageFix"/>
      <feBlend in="SourceGraphic" in2="BackgroundImageFix" result="shape"/>
      <feColorMatrix in="SourceAlpha" values="0 0 0 0 0 0 0 0 0 0 0 0 0 0 0 0 0 0 127 0" result="hardAlpha"/>
      <feOffset dy="1"/>
      <feGaussianBlur stdDeviation=".5"/>
      <feComposite in2="hardAlpha" operator="arithmetic" k2="-1" k3="1"/>
      <feColorMatrix values="0 0 0 0 1 0 0 0 0 1 0 0 0 0 1 0 0 0 0.05 0"/>
      <feBlend in2="shape" result="effect1_innerShadow"/>
    </filter>
    <filter id="filter2_d" x="71.5463" y="73" width="163.046" height="163.046" filterUnits="userSpaceOnUse" color-interpolation-filters="sRGB">
      <feFlood flood-opacity="0" result="BackgroundImageFix"/>
      <feColorMatrix in="SourceAlpha" values="0 0 0 0 0 0 0 0 0 0 0 0 0 0 0 0 0 0 127 0"/>
      <feOffset dy="5"/>
      <feGaussianBlur stdDeviation="5"/>
      <feColorMatrix values="0 0 0 0 0 0 0 0 0 0 0 0 0 0 0 0 0 0 0.5 0"/>
      <feBlend in2="BackgroundImageFix" result="effect1_dropShadow"/>
      <feBlend in="SourceGraphic" in2="effect1_dropShadow" result="shape"/>
    </filter>
    <filter id="filter3_f" x="76.5645" y="117.204" width="154.508" height="106.729" filterUnits="userSpaceOnUse" color-interpolation-filters="sRGB">
      <feFlood flood-opacity="0" result="BackgroundImageFix"/>
      <feBlend in="SourceGraphic" in2="BackgroundImageFix" result="shape"/>
      <feGaussianBlur stdDeviation="1.69618" result="effect1_foregroundBlur"/>
    </filter>
    <filter id="filter4_i" x="81.5463" y="76.6431" width="143.046" height="33.145" filterUnits="userSpaceOnUse" color-interpolation-filters="sRGB">
      <feFlood flood-opacity="0" result="BackgroundImageFix"/>
      <feBlend in="SourceGraphic" in2="BackgroundImageFix" result="shape"/>
      <feColorMatrix in="SourceAlpha" values="0 0 0 0 0 0 0 0 0 0 0 0 0 0 0 0 0 0 127 0" result="hardAlpha"/>
      <feOffset dy="-1.35695"/>
      <feGaussianBlur stdDeviation=".678473"/>
      <feComposite in2="hardAlpha" operator="arithmetic" k2="-1" k3="1"/>
      <feColorMatrix values="0 0 0 0 0 0 0 0 0 0 0 0 0 0 0 0 0 0 0.05 0"/>
      <feBlend in2="shape" result="effect1_innerShadow"/>
    </filter>
    <filter id="filter5_f" x="75.7698" y="117.039" width="156.586" height="106.599" filterUnits="userSpaceOnUse" color-interpolation-filters="sRGB">
      <feFlood flood-opacity="0" result="BackgroundImageFix"/>
      <feBlend in="SourceGraphic" in2="BackgroundImageFix" result="shape"/>
      <feGaussianBlur stdDeviation="1.69618" result="effect1_foregroundBlur"/>
    </filter>
    <filter id="filter6_d" x="110.464" y="122.674" width="67.5782" height="65.3974" filterUnits="userSpaceOnUse" color-interpolation-filters="sRGB">
      <feFlood flood-opacity="0" result="BackgroundImageFix"/>
      <feColorMatrix in="SourceAlpha" values="0 0 0 0 0 0 0 0 0 0 0 0 0 0 0 0 0 0 127 0"/>
      <feOffset dy="-.339236"/>
      <feGaussianBlur stdDeviation=".678473"/>
      <feColorMatrix values="0 0 0 0 0 0 0 0 0 0 0 0 0 0 0 0 0 0 0.1 0"/>
      <feBlend in2="BackgroundImageFix" result="effect1_dropShadow"/>
      <feBlend in="SourceGraphic" in2="effect1_dropShadow" result="shape"/>
    </filter>
    <linearGradient id="paint0_linear" x1="154" y1="0" x2="154" y2="300" gradientUnits="userSpaceOnUse">
      <stop stop-color="#fff"/>
      <stop offset="1" stop-color="#fff" stop-opacity="0"/>
    </linearGradient>
    <linearGradient id="paint1_linear" x1="154" y1="15" x2="154" y2="285" gradientUnits="userSpaceOnUse">
      <stop stop-color="#fff"/>
      <stop offset="1" stop-color="#fff" stop-opacity="0"/>
    </linearGradient>
    <linearGradient id="paint2_linear" x1="153.069" y1="78" x2="153.069" y2="109.788" gradientUnits="userSpaceOnUse">
      <stop stop-color="#fff"/>
      <stop offset="1" stop-color="#fff" stop-opacity="0"/>
    </linearGradient>
    <linearGradient id="paint3_linear" x1="153.901" y1="109.788" x2="153.901" y2="220.246" gradientUnits="userSpaceOnUse">
      <stop stop-color="#fff" stop-opacity="0"/>
      <stop offset="1" stop-color="#fff"/>
    </linearGradient>
    <linearGradient id="paint4_linear" x1="117.797" y1="124.37" x2="117.797" y2="187.059" gradientUnits="userSpaceOnUse">
      <stop stop-color="#fff" stop-opacity="0"/>
      <stop offset="1" stop-color="#fff"/>
    </linearGradient>
    <linearGradient id="paint5_linear" x1="117.797" y1="124.37" x2="117.797" y2="187.059" gradientUnits="userSpaceOnUse">
      <stop stop-color="#fff" stop-opacity="0"/>
      <stop offset="1" stop-color="#fff"/>
    </linearGradient>
  </defs>
</svg>
