<svg fill="none" xmlns="http://www.w3.org/2000/svg" viewBox="0 0 66 66">
  <g filter="url(#filter0_d)">
    <circle cx="33" cy="32" r="32" fill="#303030"/>
    <circle cx="33" cy="32" r="32" fill="url(#paint0_linear)" fill-opacity=".2"/>
  </g>
  <g filter="url(#filter1_i)">
    <circle cx="33" cy="32" r="28.8" fill="#4F4F4F"/>
    <circle cx="33" cy="32" r="28.8" fill="url(#paint1_linear)" fill-opacity=".1"/>
  </g>
  <g filter="url(#filter2_d)">
    <path d="M17.5432 16.8571c0-.1199.0972-.2171.2171-.2171h30.0823c.1199 0 .2171.0972.2171.2171v30.2994H17.5432V16.8571z" fill="#D8D8D8"/>
  </g>
  <g filter="url(#filter3_f)">
    <path d="M17.2042 46.3089c.2712-.6782 3.0867-13.2352 3.0867-20.5817h25.7319c0 5.4929.4855 15.4687 2.6957 20.8656-9.6296.9494-25.0437.1964-31.5143-.2839z" fill="#000" fill-opacity=".25"/>
  </g>
  <path d="M17.2042 46.3088c.2712-.6782.339-15.5408.339-22.8874h30.5165c0 5.493.3956 17.7165.5934 23.1417-9.6296.9494-24.9783.226-31.4489-.2543z" fill="#E3E3E3"/>
  <g filter="url(#filter4_i)">
    <path d="M17.5432 16.8571c0-.1199.0972-.2171.2171-.2171h30.0823c.1199 0 .2171.0972.2171.2171v6.5644H17.5432v-6.5644z" fill="#E34C38"/>
    <path d="M17.5432 16.8571c0-.1199.0972-.2171.2171-.2171h30.0823c.1199 0 .2171.0972.2171.2171v6.5644H17.5432v-6.5644z" fill="url(#paint2_linear)" fill-opacity=".1"/>
  </g>
  <g filter="url(#filter5_f)">
    <path d="M17.0346 45.8002c.4747-1.2885 2.8294-13.1853 2.8012-20.1081h26.0469c0 5.1539.7352 15.2291 3.1095 20.532-11.1894 1.5597-25.9673.3673-31.9576-.4239z" fill="#000" fill-opacity=".25"/>
  </g>
  <path d="M17 45.8002c.4747-1.2885.5369-15.4561.5086-22.3788h30.5165c0 5.1539.6217 17.3492.9325 22.8026-11.1894 1.5597-25.9673.3673-31.9576-.4238z" fill="#F4F4F4"/>
  <path d="M17 45.8002c.4747-1.2885.5369-15.4561.5086-22.3788h30.5165c0 5.1539.6217 17.3492.9325 22.8026-11.1894 1.5597-25.9673.3673-31.9576-.4238z" fill="url(#paint3_linear)"/>
  <g filter="url(#filter6_d)">
    <path d="M37.7014 32.1415c.0862 0 .1519-.0775.1357-.1621-.4426-2.3125-2.2994-3.6589-4.6295-3.6589-2.9181 0-5.0709 2.1858-5.0709 5.7921 0 3.6064 2.1418 5.7922 5.0709 5.7922 2.4172 0 4.2003-1.4777 4.6284-3.6204.0169-.0846-.0487-.1624-.135-.1626l-1.4383-.0046c-.0668-.0003-.1242.047-.1398.1119-.3307 1.3713-1.5157 2.1231-2.9043 2.1231-1.9325 0-3.3916-1.4811-3.3916-4.2396 0-2.7364 1.4536-4.2395 3.3972-4.2395 1.3993 0 2.5794.7675 2.8996 2.1551.0151.0654.0725.1133.1396.1133h1.438z" fill="#232323"/>
    <path d="M37.7014 32.1415c.0862 0 .1519-.0775.1357-.1621-.4426-2.3125-2.2994-3.6589-4.6295-3.6589-2.9181 0-5.0709 2.1858-5.0709 5.7921 0 3.6064 2.1418 5.7922 5.0709 5.7922 2.4172 0 4.2003-1.4777 4.6284-3.6204.0169-.0846-.0487-.1624-.135-.1626l-1.4383-.0046c-.0668-.0003-.1242.047-.1398.1119-.3307 1.3713-1.5157 2.1231-2.9043 2.1231-1.9325 0-3.3916-1.4811-3.3916-4.2396 0-2.7364 1.4536-4.2395 3.3972-4.2395 1.3993 0 2.5794.7675 2.8996 2.1551.0151.0654.0725.1133.1396.1133h1.438z" fill="url(#paint4_linear)" fill-opacity=".2"/>
    <path d="M25.3083 30.2206c.7484.007 1.2451-.5317 1.2434-1.2189.0017-.6856-.4967-1.177-1.1175-1.177-.3744 0-.699.1787-.8835.4764-.0031.005-.0085.008-.0144.008-.0092 0-.0167-.0077-.0167-.0169.0059-.8116.3131-1.2859.8341-1.2859.3033 0 .5077.1613.6023.4087.0232.0604.0782.1054.1429.1054h.2616c.0852 0 .1513-.0758.1287-.158-.1352-.4914-.5557-.8301-1.1355-.8301-.8324 0-1.3518.7153-1.3518 1.9692 0 1.3186.6698 1.7138 1.3064 1.7191zm-.0018-.4547c-.4162 0-.7205-.3498-.7205-.752.0017-.4005.32-.7502.7327-.7502.4093 0 .7101.3305.7083.745.0018.4232-.3113.7572-.7205.7572z" fill="#232323"/>
    <path d="M25.3083 30.2206c.7484.007 1.2451-.5317 1.2434-1.2189.0017-.6856-.4967-1.177-1.1175-1.177-.3744 0-.699.1787-.8835.4764-.0031.005-.0085.008-.0144.008-.0092 0-.0167-.0077-.0167-.0169.0059-.8116.3131-1.2859.8341-1.2859.3033 0 .5077.1613.6023.4087.0232.0604.0782.1054.1429.1054h.2616c.0852 0 .1513-.0758.1287-.158-.1352-.4914-.5557-.8301-1.1355-.8301-.8324 0-1.3518.7153-1.3518 1.9692 0 1.3186.6698 1.7138 1.3064 1.7191zm-.0018-.4547c-.4162 0-.7205-.3498-.7205-.752.0017-.4005.32-.7502.7327-.7502.4093 0 .7101.3305.7083.745.0018.4232-.3113.7572-.7205.7572z" fill="url(#paint5_linear)" fill-opacity=".2"/>
  </g>
  <defs>
    <filter id="filter0_d" x=".146667" y="0" width="65.7067" height="65.7067" filterUnits="userSpaceOnUse" color-interpolation-filters="sRGB">
      <feFlood flood-opacity="0" result="BackgroundImageFix"/>
      <feColorMatrix in="SourceAlpha" values="0 0 0 0 0 0 0 0 0 0 0 0 0 0 0 0 0 0 127 0"/>
      <feOffset dy=".853333"/>
      <feGaussianBlur stdDeviation=".426667"/>
      <feColorMatrix values="0 0 0 0 0 0 0 0 0 0 0 0 0 0 0 0 0 0 0.25 0"/>
      <feBlend in2="BackgroundImageFix" result="effect1_dropShadow"/>
      <feBlend in="SourceGraphic" in2="effect1_dropShadow" result="shape"/>
    </filter>
    <filter id="filter1_i" x="4.20001" y="3.19995" width="57.6" height="57.8133" filterUnits="userSpaceOnUse" color-interpolation-filters="sRGB">
      <feFlood flood-opacity="0" result="BackgroundImageFix"/>
      <feBlend in="SourceGraphic" in2="BackgroundImageFix" result="shape"/>
      <feColorMatrix in="SourceAlpha" values="0 0 0 0 0 0 0 0 0 0 0 0 0 0 0 0 0 0 127 0" result="hardAlpha"/>
      <feOffset dy=".213333"/>
      <feGaussianBlur stdDeviation=".106667"/>
      <feComposite in2="hardAlpha" operator="arithmetic" k2="-1" k3="1"/>
      <feColorMatrix values="0 0 0 0 1 0 0 0 0 1 0 0 0 0 1 0 0 0 0.05 0"/>
      <feBlend in2="shape" result="effect1_innerShadow"/>
    </filter>
    <filter id="filter2_d" x="15.4099" y="15.5733" width="34.7832" height="34.7832" filterUnits="userSpaceOnUse" color-interpolation-filters="sRGB">
      <feFlood flood-opacity="0" result="BackgroundImageFix"/>
      <feColorMatrix in="SourceAlpha" values="0 0 0 0 0 0 0 0 0 0 0 0 0 0 0 0 0 0 127 0"/>
      <feOffset dy="1.06667"/>
      <feGaussianBlur stdDeviation="1.06667"/>
      <feColorMatrix values="0 0 0 0 0 0 0 0 0 0 0 0 0 0 0 0 0 0 0.5 0"/>
      <feBlend in2="BackgroundImageFix" result="effect1_dropShadow"/>
      <feBlend in="SourceGraphic" in2="effect1_dropShadow" result="shape"/>
    </filter>
    <filter id="filter3_f" x="16.4805" y="25.0035" width="32.9618" height="22.7689" filterUnits="userSpaceOnUse" color-interpolation-filters="sRGB">
      <feFlood flood-opacity="0" result="BackgroundImageFix"/>
      <feBlend in="SourceGraphic" in2="BackgroundImageFix" result="shape"/>
      <feGaussianBlur stdDeviation=".361852" result="effect1_foregroundBlur"/>
    </filter>
    <filter id="filter4_i" x="17.5432" y="16.3505" width="30.5165" height="7.07093" filterUnits="userSpaceOnUse" color-interpolation-filters="sRGB">
      <feFlood flood-opacity="0" result="BackgroundImageFix"/>
      <feBlend in="SourceGraphic" in2="BackgroundImageFix" result="shape"/>
      <feColorMatrix in="SourceAlpha" values="0 0 0 0 0 0 0 0 0 0 0 0 0 0 0 0 0 0 127 0" result="hardAlpha"/>
      <feOffset dy="-.289482"/>
      <feGaussianBlur stdDeviation=".144741"/>
      <feComposite in2="hardAlpha" operator="arithmetic" k2="-1" k3="1"/>
      <feColorMatrix values="0 0 0 0 0 0 0 0 0 0 0 0 0 0 0 0 0 0 0.05 0"/>
      <feBlend in2="shape" result="effect1_innerShadow"/>
    </filter>
    <filter id="filter5_f" x="16.3109" y="24.9684" width="33.405" height="22.741" filterUnits="userSpaceOnUse" color-interpolation-filters="sRGB">
      <feFlood flood-opacity="0" result="BackgroundImageFix"/>
      <feBlend in="SourceGraphic" in2="BackgroundImageFix" result="shape"/>
      <feGaussianBlur stdDeviation=".361852" result="effect1_foregroundBlur"/>
    </filter>
    <filter id="filter6_d" x="23.7124" y="26.1705" width="14.4167" height="13.9514" filterUnits="userSpaceOnUse" color-interpolation-filters="sRGB">
      <feFlood flood-opacity="0" result="BackgroundImageFix"/>
      <feColorMatrix in="SourceAlpha" values="0 0 0 0 0 0 0 0 0 0 0 0 0 0 0 0 0 0 127 0"/>
      <feOffset dy="-.0723704"/>
      <feGaussianBlur stdDeviation=".144741"/>
      <feColorMatrix values="0 0 0 0 0 0 0 0 0 0 0 0 0 0 0 0 0 0 0.1 0"/>
      <feBlend in2="BackgroundImageFix" result="effect1_dropShadow"/>
      <feBlend in="SourceGraphic" in2="effect1_dropShadow" result="shape"/>
    </filter>
    <linearGradient id="paint0_linear" x1="33" y1="0" x2="33" y2="64" gradientUnits="userSpaceOnUse">
      <stop stop-color="#fff"/>
      <stop offset="1" stop-color="#fff" stop-opacity="0"/>
    </linearGradient>
    <linearGradient id="paint1_linear" x1="33" y1="3.19995" x2="33" y2="60.7999" gradientUnits="userSpaceOnUse">
      <stop stop-color="#fff"/>
      <stop offset="1" stop-color="#fff" stop-opacity="0"/>
    </linearGradient>
    <linearGradient id="paint2_linear" x1="32.8015" y1="16.64" x2="32.8015" y2="23.4215" gradientUnits="userSpaceOnUse">
      <stop stop-color="#fff"/>
      <stop offset="1" stop-color="#fff" stop-opacity="0"/>
    </linearGradient>
    <linearGradient id="paint3_linear" x1="32.9788" y1="23.4214" x2="32.9788" y2="46.9857" gradientUnits="userSpaceOnUse">
      <stop stop-color="#fff" stop-opacity="0"/>
      <stop offset="1" stop-color="#fff"/>
    </linearGradient>
    <linearGradient id="paint4_linear" x1="25.2768" y1="26.5323" x2="25.2768" y2="39.9059" gradientUnits="userSpaceOnUse">
      <stop stop-color="#fff" stop-opacity="0"/>
      <stop offset="1" stop-color="#fff"/>
    </linearGradient>
    <linearGradient id="paint5_linear" x1="25.2768" y1="26.5323" x2="25.2768" y2="39.9059" gradientUnits="userSpaceOnUse">
      <stop stop-color="#fff" stop-opacity="0"/>
      <stop offset="1" stop-color="#fff"/>
    </linearGradient>
  </defs>
</svg>
